# xmcd
#
# Track frame offsets:
#	150
#	19541
#	42943
#	64657
#	82386
#	105249
#	119844
#	143851
#	164474
#	185299
#	199576
#	218252
#
# Disc length: 3129 seconds
#
# Revision: 0
# Processed by: cddbd v1.5.1PL2 Copyright (c) Steve Scherf et al.
# Submitted via: dBpowerAMP V4.0
#
DISCID=a10c370c
DTITLE=Sons and Brothers - WestGrass
DYEAR=2005
DGENRE=Bluegrass
TTITLE0=Oh Captain, My Captain
TTITLE1=Measure Of A Man
TTITLE2=Up On The Divide
TTITLE3=Diamond Joe
TTITLE4=She
TTITLE5=Old Ebenezer Scrooge
TTITLE6=Rodeo Hobo
TTITLE7=Turn To Jesus
TTITLE8=Orphan Train
TTITLE9=Vaquero Joe
TTITLE10=Lights Of Cheyenne
TTITLE11=Sweet Hour Of Prayer
EXTD=
EXTT0=
EXTT1=
EXTT2=
EXTT3=
EXTT4=
EXTT5=
EXTT6=
EXTT7=
EXTT8=
EXTT9=
EXTT10=
EXTT11=
PLAYORDER=
